<svg xmlns="http://www.w3.org/2000/svg" width="2000.000000pt" height="2000.000000pt" viewBox="0 0 2000.000000 2000.000000" preserveAspectRatio="xMidYMid meet"><g transform="translate(0.000000,2000.000000) scale(0.100000,-0.100000)" fill="#000000" stroke="none"><path d="M3742 12593 c-156 -2 -282 -7 -280 -12 9 -23 3004 -5011 3009 -5011 3 0 257 420 565 933 309 512 912 1516 1342 2230 l782 1297 0 280 0 280 -295 0 -294 0 -1047 -1745 c-575 -960 -1049 -1745 -1052 -1745 -4 0 -341 556 -748 1235 l-741 1235 250 -2 249 -3 505 -845 c277 -465 507 -850 511 -857 5 -8 98 139 236 368 l228 380 -198 347 c-109 191 -250 435 -315 544 -477 798 -721 998 -1309 1074 -131 17 -771 25 -1398 17z"></path><path d="M9985 10677 c-91 -30 -154 -92 -192 -187 -17 -42 -18 -114 -21 -1105 -2 -723 1 -1082 8 -1130 20 -127 92 -217 202 -250 109 -32 232 -7 310 63 77 70 98 146 98 355 0 119 2 139 13 127 8 -8 74 -111 147 -228 86 -137 149 -227 176 -251 184 -161 488 -24 488 220 0 84 -11 107 -217 431 l-156 247 174 278 c143 228 177 288 186 335 15 75 5 134 -34 199 -99 165 -328 197 -462 64 -17 -18 -94 -135 -171 -260 l-139 -227 -5 548 c-6 611 -5 599 -76 682 -70 82 -223 123 -329 89z"></path><path d="M11925 10677 c-91 -30 -154 -92 -192 -187 -17 -42 -18 -114 -21 -1105 -2 -723 1 -1082 8 -1130 20 -127 92 -217 202 -250 109 -32 232 -7 310 63 77 70 98 146 98 355 0 119 2 139 13 127 8 -8 74 -111 147 -228 86 -137 149 -227 176 -251 184 -161 488 -24 488 220 0 84 -11 107 -217 431 l-156 247 174 278 c143 228 177 288 186 335 15 75 5 134 -34 199 -99 165 -328 197 -462 64 -17 -18 -94 -135 -171 -260 l-139 -227 -5 548 c-6 611 -5 599 -76 682 -70 82 -223 123 -329 89z"></path><path d="M8784 10590 c-18 -6 -53 -25 -80 -42 -204 -138 -185 -424 36 -539 64 -33 194 -34 260 -2 63 31 128 96 156 157 29 62 32 159 8 229 -21 61 -94 141 -158 174 -57 29 -166 40 -222 23z"></path><path d="M14353 9926 c-208 -40 -376 -128 -524 -275 -121 -120 -208 -273 -253 -441 -24 -87 -32 -308 -16 -408 66 -408 390 -736 799 -807 148 -26 403 -12 550 31 143 41 300 155 347 251 61 125 37 264 -57 325 -83 54 -198 51 -334 -10 -140 -62 -159 -66 -290 -67 -115 0 -123 1 -190 33 -73 34 -136 87 -161 134 -32 61 -64 57 514 60 l527 3 50 27 c150 80 199 224 146 430 -92 355 -356 615 -713 704 -88 21 -305 27 -395 10z m341 -596 c67 -26 156 -105 156 -140 0 -20 -4 -20 -330 -20 l-331 0 15 29 c30 57 136 129 223 151 63 15 201 5 267 -20z"></path><path d="M8764 9892 c-106 -37 -173 -120 -194 -242 -7 -45 -10 -274 -8 -740 3 -606 5 -680 20 -725 24 -69 77 -128 146 -162 49 -24 69 -28 142 -28 73 0 93 4 142 28 66 33 119 90 145 156 16 42 18 102 21 726 4 739 2 774 -49 863 -68 119 -225 172 -365 124z"></path><path d="M16049 8526 c-119 -42 -192 -143 -192 -266 -1 -121 74 -222 189 -256 111 -32 215 -5 288 76 50 56 67 100 68 175 0 80 -29 148 -90 208 -73 71 -173 95 -263 63z"></path></g></svg>