<?xml version="1.0" encoding="utf-8"?>
<!-- Generator: Adobe Illustrator 28.2.0, SVG Export Plug-In . SVG Version: 6.00 Build 0)  -->
<svg version="1.1" id="Layer_1" xmlns="http://www.w3.org/2000/svg" xmlns:xlink="http://www.w3.org/1999/xlink" x="0px" y="0px"
	 viewBox="0 0 1741.4 696.8" style="enable-background:new 0 0 1741.4 696.8;" xml:space="preserve">
<path d="M42.3,14.3c-20.8,0.3-37.6,0.9-37.3,1.6C6.1,19,405.5,684,406.1,684c0.4,0,34.3-56,75.3-124.4
	c41.2-68.3,121.6-202.1,178.9-297.3L764.7,89.4V14.7h-78.5L546.5,247.4C469.9,375.4,406.7,480,406.3,480
	c-0.5,0-45.5-74.1-99.7-164.7l-98.8-164.7l33.3,0.3l33.2,0.4L341.6,264c36.9,62,67.6,113.3,68.1,114.3c0.7,1.1,13.1-18.5,31.5-49.1
	l30.4-50.7l-26.4-46.3c-14.5-25.5-33.3-58-42-72.5C339.6,53.4,307.1,26.7,228.7,16.6C211.2,14.3,125.9,13.2,42.3,14.3z"/>
<path d="M874.7,269.8c-12.1,4-20.5,12.3-25.6,24.9c-2.3,5.6-2.4,15.2-2.8,147.3c-0.3,96.4,0.1,144.3,1.1,150.7
	c2.7,16.9,12.3,28.9,26.9,33.3c14.5,4.3,30.9,0.9,41.3-8.4c10.3-9.3,13.1-19.5,13.1-47.3c0-15.9,0.3-18.5,1.7-16.9
	c1.1,1.1,9.9,14.8,19.6,30.4c11.5,18.3,19.9,30.3,23.5,33.5c24.5,21.5,65.1,3.2,65.1-29.3c0-11.2-1.5-14.3-28.9-57.5l-20.8-32.9
	l23.2-37.1c19.1-30.4,23.6-38.4,24.8-44.7c2-10,0.7-17.9-4.5-26.5c-13.2-22-43.7-26.3-61.6-8.5c-2.3,2.4-12.5,18-22.8,34.7
	l-18.5,30.3l-0.7-73.1c-0.8-81.5-0.7-79.9-10.1-90.9C909.2,270.7,888.8,265.2,874.7,269.8L874.7,269.8z"/>
<path d="M1133.3,269.8c-12.1,4-20.5,12.3-25.6,24.9c-2.3,5.6-2.4,15.2-2.8,147.3c-0.3,96.4,0.1,144.3,1.1,150.7
	c2.7,16.9,12.3,28.9,26.9,33.3c14.5,4.3,30.9,0.9,41.3-8.4c10.3-9.3,13.1-19.5,13.1-47.3c0-15.9,0.3-18.5,1.7-16.9
	c1.1,1.1,9.9,14.8,19.6,30.4c11.5,18.3,19.9,30.3,23.5,33.5c24.5,21.5,65.1,3.2,65.1-29.3c0-11.2-1.5-14.3-28.9-57.5l-20.8-32.9
	l23.2-37.1c19.1-30.4,23.6-38.4,24.8-44.7c2-10,0.7-17.9-4.5-26.5c-13.2-22-43.7-26.3-61.6-8.5c-2.3,2.4-12.5,18-22.8,34.7
	l-18.5,30.3l-0.7-73.1c-0.8-81.5-0.7-79.9-10.1-90.9C1167.9,270.7,1147.5,265.2,1133.3,269.8L1133.3,269.8z"/>
<path d="M714.5,281.4c-2.4,0.8-7.1,3.3-10.7,5.6c-27.2,18.4-24.7,56.5,4.8,71.9c8.5,4.4,25.9,4.5,34.7,0.3
	c8.4-4.1,17.1-12.8,20.8-20.9c3.9-8.3,4.3-21.2,1.1-30.5c-2.8-8.1-12.5-18.8-21.1-23.2C736.5,280.6,722,279.1,714.5,281.4
	L714.5,281.4z"/>
<path d="M1457.1,369.9c-27.7,5.3-50.1,17.1-69.9,36.7c-16.1,16-27.7,36.4-33.7,58.8c-3.2,11.6-4.3,41.1-2.1,54.4
	c8.8,54.4,52,98.1,106.5,107.6c19.7,3.5,53.7,1.6,73.3-4.1c19.1-5.5,40-20.7,46.3-33.5c8.1-16.7,4.9-35.2-7.6-43.3
	c-11.1-7.2-26.4-6.8-44.5,1.3c-18.7,8.3-21.2,8.8-38.7,8.9c-15.3,0-16.4-0.1-25.3-4.4c-9.7-4.5-18.1-11.6-21.5-17.9
	c-4.3-8.1-8.5-7.6,68.5-8l70.3-0.4l6.7-3.6c20-10.7,26.5-29.9,19.5-57.3c-12.3-47.3-47.5-82-95.1-93.9
	C1498,368.4,1469.1,367.6,1457.1,369.9L1457.1,369.9z M1502.5,449.4c8.9,3.5,20.8,14,20.8,18.7c0,2.7-0.5,2.7-44,2.7h-44.1l2-3.9
	c4-7.6,18.1-17.2,29.7-20.1C1475.3,444.7,1493.7,446,1502.5,449.4z"/>
<path d="M711.9,374.4c-14.1,4.9-23.1,16-25.9,32.3c-0.9,6-1.3,36.5-1.1,98.7c0.4,80.8,0.7,90.7,2.7,96.7
	c3.2,9.2,10.3,17.1,19.5,21.6c6.5,3.2,9.2,3.7,18.9,3.7s12.4-0.5,18.9-3.7c8.8-4.4,15.9-12,19.3-20.8c2.1-5.6,2.4-13.6,2.8-96.8
	c0.5-98.5,0.3-103.2-6.5-115.1C751.5,375.1,730.5,368,711.9,374.4L711.9,374.4z"/>
<path d="M1683.2,556.6c-15.9,5.6-25.6,19.1-25.6,35.5c-0.1,16.1,9.9,29.6,25.2,34.1c14.8,4.3,28.7,0.7,38.4-10.1
	c6.7-7.5,8.9-13.3,9.1-23.3c0-10.7-3.9-19.7-12-27.7C1708.5,555.5,1695.2,552.3,1683.2,556.6L1683.2,556.6z"/>
</svg>
